# xmcd
# Copyright (C) 1995-1998 Ti Kan
#
# Track frame offsets:
#       150
#       22435
#       34862
#       54615
#       61127
#       67072
#       74462
#       85617
#       101612
#       117930
#       133785
#       155422
#       175422
#       200170
#       229695
#       243442
#
# Disc length: 3462 seconds
#
# Revision: 0
# Processed by: cddbd v1.4PL0 Copyright (c) Steve Scherf et al.
# Submitted via: CD-Transfer v1.0
#
DISCID=ec0d8410
DTITLE=Finnish Radio Symphony Orchestra - Stravinsky - CD 2
DYEAR=02
DGENRE=
TTITLE0=Naissance d'Apollon
TTITLE1=Variation d'Apollon
TTITLE2=Pas d'action
TTITLE3=Variation de Calliope
TTITLE4=Variation de Polymnie
TTITLE5=Variation de Terpsichore
TTITLE6=Variation d'Apollon
TTITLE7=Pas de deux
TTITLE8=Coda
TTITLE9=Apothéose
TTITLE10=Tempo giusto
TTITLE11=Allegretto
TTITLE12=Con Moto
TTITLE13=Vivace
TTITLE14=Arioso: andantino
TTITLE15=Rondo: allegro
EXTD=
EXTT0=
EXTT1=
EXTT2=
EXTT3=
EXTT4=
EXTT5=
EXTT6=
EXTT7=
EXTT8=
EXTT9=
EXTT10=
EXTT11=
EXTT12=
EXTT13=
EXTT14=
EXTT15=
PLAYORDER=
